<?xml version="1.0" standalone="no"?>
<!DOCTYPE svg PUBLIC "-//W3C//DTD SVG 20010904//EN"
 "http://www.w3.org/TR/2001/REC-SVG-20010904/DTD/svg10.dtd">
<svg version="1.0" xmlns="http://www.w3.org/2000/svg"
 width="700.000000pt" height="700.000000pt" viewBox="0 0 700.000000 700.000000"
 preserveAspectRatio="xMidYMid meet">
<metadata>
Created by potrace 1.11, written by Peter Selinger 2001-2013
</metadata>
<g transform="translate(0.000000,700.000000) scale(0.100000,-0.100000)"
fill="#000000" stroke="none">
<path d="M2829 6496 c-2 -2 -42 -6 -89 -10 -105 -8 -292 -39 -396 -66 -44 -12
-88 -23 -98 -25 -39 -9 -153 -49 -248 -86 -560 -222 -1009 -591 -1321 -1087
-50 -80 -195 -351 -196 -367 -1 -3 -8 -22 -16 -42 -34 -80 -85 -223 -85 -236
0 -7 -3 -17 -7 -21 -4 -3 -8 -12 -9 -19 -2 -7 -11 -46 -22 -87 -11 -41 -26
-102 -33 -135 -7 -33 -13 -62 -14 -65 -1 -3 -5 -30 -9 -60 -5 -30 -10 -64 -12
-75 -19 -93 -26 -470 -12 -620 32 -341 123 -656 279 -970 77 -154 96 -187 185
-320 249 -373 585 -674 983 -881 211 -110 427 -193 632 -243 68 -16 140 -32
159 -35 19 -3 82 -13 140 -23 158 -25 566 -24 735 2 17 3 46 7 65 9 345 48
785 223 1102 439 16 10 100 -70 670 -640 359 -359 677 -675 706 -702 101 -92
217 -133 362 -126 215 10 399 162 455 376 17 62 12 208 -9 272 -35 109 -70
147 -770 847 -377 377 -686 688 -686 692 0 4 25 47 56 95 193 298 324 640 383
993 30 182 35 253 36 465 0 319 -29 523 -117 810 -28 91 -74 220 -98 270 -5
11 -25 55 -44 98 -193 431 -561 857 -966 1120 -351 228 -763 381 -1165 433
-27 3 -54 8 -58 11 -10 6 -461 15 -468 9z m398 -1010 c11 -2 43 -8 70 -11 44
-7 107 -21 203 -45 198 -51 466 -200 640 -355 65 -58 215 -214 244 -255 267
-365 368 -676 361 -1105 -2 -88 -5 -169 -8 -180 -3 -11 -8 -45 -12 -75 -9 -72
-50 -235 -77 -308 -198 -535 -684 -974 -1219 -1100 -163 -39 -272 -50 -475
-47 -95 1 -176 5 -180 8 -5 3 -32 8 -59 11 -126 14 -311 71 -461 141 -285 135
-567 387 -745 669 -40 62 -125 232 -148 296 -7 19 -17 44 -22 55 -10 23 -55
202 -63 255 -16 101 -21 169 -20 310 0 85 3 182 8 215 4 33 9 75 12 93 6 48
50 217 73 282 144 404 492 793 882 985 168 83 375 143 554 160 39 4 71 9 73
10 5 5 345 -3 369 -9z"/>
<path d="M2813 4980 c-63 -38 -63 -42 -63 -534 l0 -446 -447 0 c-407 0 -451
-2 -482 -18 -60 -30 -71 -66 -71 -237 0 -144 1 -152 25 -187 17 -25 37 -40 63
-47 23 -7 202 -11 475 -11 l437 0 0 -452 c0 -437 1 -454 20 -486 32 -52 69
-62 232 -62 163 0 200 11 230 71 16 31 18 75 18 482 l0 447 446 0 c493 0 496
0 535 64 16 27 18 50 16 191 -2 149 -4 162 -25 192 -14 20 -37 36 -60 43 -23
6 -205 10 -474 10 l-438 0 -1 443 c0 243 -2 449 -4 458 -6 32 -40 72 -73 86
-24 10 -74 13 -182 12 -123 -1 -153 -4 -177 -19z"/>
</g>
</svg>
